<svg xmlns="http://www.w3.org/2000/svg" width="500" height="100
" viewBox="0 0 350 50.30317791392128" class="looka-1j8o68f"><defs id="SvgjsDefs2828"/><g id="SvgjsG2829" featurekey="K5GtsI-0" transform="matrix(3.2892792906803203,0,0,3.2892792906803203,-6.23173808165766,-17.056553533280013)" fill="#ffffff"><path d="M11.211 13.3594 l-0.47852 0.61523 l-1.3867 6.0645 l-4.9219 0 l1.3574 -5.9082 c-0.078125 -0.24414 -0.16602 -0.50781 -0.25391 -0.77148 l-0.87891 0 c-0.9082 -2.6367 -1.9824 -5.3613 -2.7539 -7.9785 l5.5273 0 l1.1523 3.7012 c0.89844 -1.2305 1.8262 -2.4707 2.7246 -3.7012 l5.4004 0 l-6.3672 7.9785 l0.87891 0 z M14.45309375 13.6328 l-1.123 0 l4.5898 -8.1934 l4.873 0 l0.79102 8.1934 l1.0938 0 l0.61523 6.3574 l-5.0293 0 l-0.20508 -2.7441 l-2.7832 0 c-0.48828 0.9082 -0.94727 1.8262 -1.4355 2.7441 l-4.9414 0 z M19.931593749999998 13.837900000000001 l0 -0.20508 l-1.0645 0 l0.019531 -3.2422 l-1.3086 3.2422 l1.084 0 l-0.078125 0.20508 l1.3477 0 z M42.148046875 13.6328 l-1.4844 6.3574 l-4.8828 0 l1.2793 -5.4199 c-0.49805 0.75195 -0.99609 1.4941 -1.4551 2.2461 l-3.4473 0 l-0.41992 -2.2656 l-1.2793 5.4395 l-4.6777 0 l1.4453 -6.3574 l-0.87891 0 l1.8848 -8.1836 l5.1855 0 l1.0645 5.2051 c1.1426 -1.7188 2.2852 -3.457 3.457 -5.2051 l5.1855 0 l-1.8848 8.1836 l0.9082 0 z M57.842203125 12.8418 c-0.078125 0.3125 -0.16602 0.625 -0.2832 0.94727 l1.0645 0 c-1.2402 3.877 -4.3945 6.6895 -8.7207 6.6895 c-4.4629 0 -6.2012 -2.8125 -5.6348 -6.6895 l-1.0352 0 c0.039063 -0.32227 0.087891 -0.63477 0.15625 -0.94727 c1.0352 -4.4629 4.2676 -7.6563 8.9648 -7.6563 c4.5996 0 6.4941 3.2227 5.4883 7.6563 z M53.554203125 13.789100000000001 l-1.0547 0 c0.097656 -0.32227 0.19531 -0.63477 0.26367 -0.9668 c1.2402 -5.3613 -3.0859 -5.2051 -4.2969 0.019531 c-0.068359 0.3418 -0.11719 0.6543 -0.16602 0.94727 l1.0547 0 c-0.50781 4.082 2.8223 3.9941 4.1992 0 z M67.28528125 13.3594 l-1.4844 6.6797 l-4.9512 0 l1.5234 -6.6797 l-0.88867 0 l0.98633 -4.2773 l-3.9063 0 l0.85938 -3.7012 l12.676 0 l-0.83008 3.7012 l-3.8965 0 l-0.95703 4.2773 l0.86914 0 z M76.953134375 13.6719 l-1.4648 6.3672 l-4.9414 0 l1.4648 -6.3672 l-0.99609 0 l1.9141 -8.2422 l4.9316 0 l-1.8945 8.2422 l0.98633 0 z M92.217203125 12.8418 c-0.078125 0.3125 -0.16602 0.625 -0.2832 0.94727 l1.0645 0 c-1.2402 3.877 -4.3945 6.6895 -8.7207 6.6895 c-4.4629 0 -6.2012 -2.8125 -5.6348 -6.6895 l-1.0352 0 c0.039063 -0.32227 0.087891 -0.63477 0.15625 -0.94727 c1.0352 -4.4629 4.2676 -7.6563 8.9648 -7.6563 c4.5996 0 6.4941 3.2227 5.4883 7.6563 z M87.929203125 13.789100000000001 l-1.0547 0 c0.097656 -0.32227 0.19531 -0.63477 0.26367 -0.9668 c1.2402 -5.3613 -3.0859 -5.2051 -4.2969 0.019531 c-0.068359 0.3418 -0.11719 0.6543 -0.16602 0.94727 l1.0547 0 c-0.50781 4.082 2.8223 3.9941 4.1992 0 z M107.29503125 13.6328 l-1.4551 6.3574 l-4.541 0 l-1.9336 -6.3574 l-0.22461 0 l-1.4746 6.3574 l-4.5996 0 l1.4746 -6.3574 l-0.88867 0 l1.8848 -8.1836 l5.3613 0 l1.582 5.1367 l1.2012 -5.1367 l4.6191 0 l-1.8945 8.1836 l0.88867 0 z"/></g></svg>